<svg width="34" height="33" viewBox="0 0 34 33" fill="none" xmlns="http://www.w3.org/2000/svg">
<ellipse cx="17" cy="16.5" rx="17" ry="16.5" fill="#F6735D"/>
<mask id="path-2-inside-1_44_4" fill="white">
<path d="M10 12C10 11.4477 10.4477 11 11 11H23C23.5523 11 24 11.4477 24 12V23C24 24.6569 22.6569 26 21 26H13C11.3431 26 10 24.6569 10 23V12Z"/>
</mask>
<path d="M10 12C10 11.4477 10.4477 11 11 11H23C23.5523 11 24 11.4477 24 12V23C24 24.6569 22.6569 26 21 26H13C11.3431 26 10 24.6569 10 23V12Z" stroke="white" stroke-width="4" mask="url(#path-2-inside-1_44_4)"/>
<path d="M9 12H25" stroke="white" stroke-width="2"/>
<line x1="15" y1="17" x2="15" y2="20" stroke="white" stroke-width="2" stroke-linecap="round"/>
<line x1="19" y1="17" x2="19" y2="20" stroke="white" stroke-width="2" stroke-linecap="round"/>
<path d="M13 9C13 8.44772 13.4477 8 14 8H20C20.5523 8 21 8.44772 21 9V11H13V9Z" stroke="white" stroke-width="2"/>
</svg>
